<svg id="SvgjsSvg1006" width="639" height="411.66668701171875" xmlns="http://www.w3.org/2000/svg" version="1.1" xmlns:xlink="http://www.w3.org/1999/xlink" xmlns:svgjs="http://svgjs.com/svgjs"><defs id="SvgjsDefs1007"><marker id="SvgjsMarker1076" markerWidth="16" markerHeight="12" refX="11" refY="6" viewBox="0 0 16 12" orient="auto" markerUnits="userSpaceOnUse" stroke-dasharray="0,0"><path id="SvgjsPath1077" d="M0,0 L16,6 L0,12 L0,0" fill="#323232" stroke="#323232" stroke-width="1"></path></marker><marker id="SvgjsMarker1098" markerWidth="16" markerHeight="12" refX="11" refY="6" viewBox="0 0 16 12" orient="auto" markerUnits="userSpaceOnUse" stroke-dasharray="0,0"><path id="SvgjsPath1099" d="M0,0 L16,6 L0,12 L0,0" fill="#323232" stroke="#323232" stroke-width="1"></path></marker></defs><g id="SvgjsG1008" transform="translate(25,57)"><path id="SvgjsPath1009" d="M 0 0L 230 0L 230 325L 0 325Z" stroke="rgba(50,50,50,1)" stroke-width="2" fill-opacity="1" fill="#e5e5e5"></path><g id="SvgjsG1010"><text id="SvgjsText1011" font-family="微软雅黑" text-anchor="middle" font-size="13px" width="210px" fill="#323232" font-weight="400" align="middle" lineHeight="125%" anchor="middle" family="微软雅黑" size="13px" weight="400" font-style="" opacity="1" y="151.875" transform="rotate(0)"></text></g></g><g id="SvgjsG1012" transform="translate(38,73)"><path id="SvgjsPath1013" d="M 0 4Q 0 0 4 0L 200 0Q 204 0 204 4L 204 80Q 204 84 200 84L 4 84Q 0 84 0 80Z" stroke="rgba(50,50,50,1)" stroke-width="2" fill-opacity="1" fill="#ccffff"></path><g id="SvgjsG1014"><text id="SvgjsText1015" font-family="微软雅黑" text-anchor="middle" font-size="13px" width="184px" fill="#323232" font-weight="400" align="middle" lineHeight="125%" anchor="middle" family="微软雅黑" size="13px" weight="400" font-style="" opacity="1" y="31.375" transform="rotate(0)"></text></g></g><g id="SvgjsG1016" transform="translate(38,166)"><path id="SvgjsPath1017" d="M 0 4Q 0 0 4 0L 200 0Q 204 0 204 4L 204 80Q 204 84 200 84L 4 84Q 0 84 0 80Z" stroke="rgba(50,50,50,1)" stroke-width="2" fill-opacity="1" fill="#ccffff"></path><g id="SvgjsG1018"><text id="SvgjsText1019" font-family="微软雅黑" text-anchor="middle" font-size="13px" width="184px" fill="#323232" font-weight="400" align="middle" lineHeight="125%" anchor="middle" family="微软雅黑" size="13px" weight="400" font-style="" opacity="1" y="31.375" transform="rotate(0)"></text></g></g><g id="SvgjsG1020" transform="translate(38,257)"><path id="SvgjsPath1021" d="M 0 4Q 0 0 4 0L 200 0Q 204 0 204 4L 204 80Q 204 84 200 84L 4 84Q 0 84 0 80Z" stroke="rgba(50,50,50,1)" stroke-width="2" fill-opacity="1" fill="#ccffff"></path><g id="SvgjsG1022"><text id="SvgjsText1023" font-family="微软雅黑" text-anchor="middle" font-size="13px" width="184px" fill="#323232" font-weight="400" align="middle" lineHeight="125%" anchor="middle" family="微软雅黑" size="13px" weight="400" font-style="" opacity="1" y="31.375" transform="rotate(0)"></text></g></g><g id="SvgjsG1024" transform="translate(80,341)"><path id="SvgjsPath1025" d="M 0 0L 120 0L 120 40L 0 40Z" stroke="none" fill="none"></path><g id="SvgjsG1026"><text id="SvgjsText1027" font-family="微软雅黑" text-anchor="middle" font-size="15px" width="120px" fill="#323232" font-weight="700" align="middle" lineHeight="125%" anchor="middle" family="微软雅黑" size="15px" weight="700" font-style="" opacity="1" y="7.625" transform="rotate(0)"><tspan id="SvgjsTspan1028" dy="18" x="60"><tspan id="SvgjsTspan1029" style="text-decoration:;">虚拟机栈</tspan></tspan></text></g></g><g id="SvgjsG1030" transform="translate(80,92)"><path id="SvgjsPath1031" d="M 0 0L 120 0L 120 40L 0 40Z" stroke="none" fill="none"></path><g id="SvgjsG1032"><text id="SvgjsText1033" font-family="微软雅黑" text-anchor="middle" font-size="13px" width="120px" fill="#323232" font-weight="700" align="middle" lineHeight="125%" anchor="middle" family="微软雅黑" size="13px" weight="700" font-style="" opacity="1" y="9.375" transform="rotate(0)"><tspan id="SvgjsTspan1034" dy="16" x="60"><tspan id="SvgjsTspan1035" style="text-decoration:;">栈帧</tspan></tspan></text></g></g><g id="SvgjsG1036" transform="translate(80,187)"><path id="SvgjsPath1037" d="M 0 0L 120 0L 120 40L 0 40Z" stroke="none" fill="none"></path><g id="SvgjsG1038"><text id="SvgjsText1039" font-family="微软雅黑" text-anchor="middle" font-size="13px" width="120px" fill="#323232" font-weight="700" align="middle" lineHeight="125%" anchor="middle" family="微软雅黑" size="13px" weight="700" font-style="" opacity="1" y="9.375" transform="rotate(0)"><tspan id="SvgjsTspan1040" dy="16" x="60"><tspan id="SvgjsTspan1041" style="text-decoration:;">栈帧</tspan></tspan></text></g></g><g id="SvgjsG1042" transform="translate(80,282)"><path id="SvgjsPath1043" d="M 0 0L 120 0L 120 40L 0 40Z" stroke="none" fill="none"></path><g id="SvgjsG1044"><text id="SvgjsText1045" font-family="微软雅黑" text-anchor="middle" font-size="13px" width="120px" fill="#323232" font-weight="700" align="middle" lineHeight="125%" anchor="middle" family="微软雅黑" size="13px" weight="700" font-style="" opacity="1" y="9.375" transform="rotate(0)"><tspan id="SvgjsTspan1046" dy="16" x="60"><tspan id="SvgjsTspan1047" style="text-decoration:;">栈帧</tspan></tspan></text></g></g><g id="SvgjsG1048" transform="translate(376,25)"><path id="SvgjsPath1049" d="M 0 0L 238 0L 238 259L 0 259Z" stroke="rgba(50,50,50,1)" stroke-width="2" fill-opacity="1" fill="#ccffff"></path><g id="SvgjsG1050"><text id="SvgjsText1051" font-family="微软雅黑" text-anchor="middle" font-size="13px" width="218px" fill="#323232" font-weight="400" align="middle" lineHeight="125%" anchor="middle" family="微软雅黑" size="13px" weight="400" font-style="" opacity="1" y="118.875" transform="rotate(0)"></text></g></g><g id="SvgjsG1052" transform="translate(386,37)"><path id="SvgjsPath1053" d="M 0 4Q 0 0 4 0L 214 0Q 218 0 218 4L 218 46Q 218 50 214 50L 4 50Q 0 50 0 46Z" stroke="rgba(50,50,50,1)" stroke-width="2" fill-opacity="1" fill="#ffe6cc"></path><g id="SvgjsG1054"><text id="SvgjsText1055" font-family="微软雅黑" text-anchor="middle" font-size="13px" width="198px" fill="#323232" font-weight="400" align="middle" lineHeight="125%" anchor="middle" family="微软雅黑" size="13px" weight="400" font-style="" opacity="1" y="14.375" transform="rotate(0)"></text></g></g><g id="SvgjsG1056" transform="translate(386,92)"><path id="SvgjsPath1057" d="M 0 4Q 0 0 4 0L 214 0Q 218 0 218 4L 218 46Q 218 50 214 50L 4 50Q 0 50 0 46Z" stroke="rgba(50,50,50,1)" stroke-width="2" fill-opacity="1" fill="#ffe6cc"></path><g id="SvgjsG1058"><text id="SvgjsText1059" font-family="微软雅黑" text-anchor="middle" font-size="13px" width="198px" fill="#323232" font-weight="700" align="middle" lineHeight="125%" anchor="middle" family="微软雅黑" size="13px" weight="700" font-style="" opacity="1" y="14.375" transform="rotate(0)"><tspan id="SvgjsTspan1060" dy="16" x="109"><tspan id="SvgjsTspan1061" style="text-decoration:;">局部变量表</tspan></tspan></text></g></g><g id="SvgjsG1062" transform="translate(386,146)"><path id="SvgjsPath1063" d="M 0 4Q 0 0 4 0L 214 0Q 218 0 218 4L 218 46Q 218 50 214 50L 4 50Q 0 50 0 46Z" stroke="rgba(50,50,50,1)" stroke-width="2" fill-opacity="1" fill="#ffe6cc"></path><g id="SvgjsG1064"><text id="SvgjsText1065" font-family="微软雅黑" text-anchor="middle" font-size="13px" width="198px" fill="#323232" font-weight="700" align="middle" lineHeight="125%" anchor="middle" family="微软雅黑" size="13px" weight="700" font-style="" opacity="1" y="14.375" transform="rotate(0)"><tspan id="SvgjsTspan1066" dy="16" x="109"><tspan id="SvgjsTspan1067" style="text-decoration:;">动态链接</tspan></tspan></text></g></g><g id="SvgjsG1068" transform="translate(386,201)"><path id="SvgjsPath1069" d="M 0 4Q 0 0 4 0L 214 0Q 218 0 218 4L 218 46Q 218 50 214 50L 4 50Q 0 50 0 46Z" stroke="rgba(50,50,50,1)" stroke-width="2" fill-opacity="1" fill="#ffe6cc"></path><g id="SvgjsG1070"><text id="SvgjsText1071" font-family="微软雅黑" text-anchor="middle" font-size="13px" width="198px" fill="#323232" font-weight="700" align="middle" lineHeight="125%" anchor="middle" family="微软雅黑" size="13px" weight="700" font-style="" opacity="1" y="14.375" transform="rotate(0)"><tspan id="SvgjsTspan1072" dy="16" x="109"><tspan id="SvgjsTspan1073" style="text-decoration:;">方法返回</tspan></tspan></text></g></g><g id="SvgjsG1074"><path id="SvgjsPath1075" d="M242.99705477169368 207.9233072217036C 299.71412305493345 208 318.28587694506655 154.5 371.11443161870085 154.87579461365243" stroke="#323232" stroke-width="3" fill="none" marker-end="url(#SvgjsMarker1076)"></path></g><g id="SvgjsG1078" transform="translate(438,249)"><path id="SvgjsPath1079" d="M 0 0L 120 0L 120 40L 0 40Z" stroke="none" fill="none"></path><g id="SvgjsG1080"><text id="SvgjsText1081" font-family="微软雅黑" text-anchor="middle" font-size="15px" width="120px" fill="#323232" font-weight="700" align="middle" lineHeight="125%" anchor="middle" family="微软雅黑" size="15px" weight="700" font-style="" opacity="1" y="7.625" transform="rotate(0)"><tspan id="SvgjsTspan1082" dy="18" x="60"><tspan id="SvgjsTspan1083" style="text-decoration:;">栈帧</tspan></tspan></text></g></g><g id="SvgjsG1084" transform="translate(435,42)"><path id="SvgjsPath1085" d="M 0 0L 120 0L 120 40L 0 40Z" stroke="none" fill="none"></path><g id="SvgjsG1086"><text id="SvgjsText1087" font-family="微软雅黑" text-anchor="middle" font-size="13px" width="120px" fill="#323232" font-weight="700" align="middle" lineHeight="125%" anchor="middle" family="微软雅黑" size="13px" weight="700" font-style="" opacity="1" y="9.375" transform="rotate(0)"><tspan id="SvgjsTspan1088" dy="16" x="60"><tspan id="SvgjsTspan1089" style="text-decoration:;">操作数栈</tspan></tspan></text></g></g><g id="SvgjsG1090" transform="translate(376,309.66666412353516)"><path id="SvgjsPath1091" d="M 0 0L 238 0L 238 77L 0 77Z" stroke="rgba(50,50,50,1)" stroke-width="2" fill-opacity="1" fill="#ccffff"></path><g id="SvgjsG1092"><text id="SvgjsText1093" font-family="微软雅黑" text-anchor="middle" font-size="15px" width="218px" fill="#323232" font-weight="700" align="middle" lineHeight="125%" anchor="middle" family="微软雅黑" size="15px" weight="700" font-style="" opacity="1" y="26.125" transform="rotate(0)"><tspan id="SvgjsTspan1094" dy="18" x="119"><tspan id="SvgjsTspan1095" style="text-decoration:;">......</tspan></tspan></text></g></g><g id="SvgjsG1096"><path id="SvgjsPath1097" d="M242.99741261802575 299.07188928573214C 299.0941129869433 299 318.9058870130567 348.16666412353516 371.11267817167396 347.8144066234476" stroke="#323232" stroke-width="3" fill="none" marker-end="url(#SvgjsMarker1098)"></path></g></svg>